<?xml version="1.0" standalone="no"?>
<!DOCTYPE svg PUBLIC "-//W3C//DTD SVG 20010904//EN"
 "http://www.w3.org/TR/2001/REC-SVG-20010904/DTD/svg10.dtd">
<svg version="1.0" xmlns="http://www.w3.org/2000/svg"
 width="500.000000pt" height="500.000000pt" viewBox="0 0 500.000000 500.000000"
 preserveAspectRatio="xMidYMid meet">

<g transform="translate(0.000000,500.000000) scale(0.100000,-0.100000)"
fill="#000000" stroke="none">
<path d="M2273 3939 c16 -55 20 -102 9 -95 -5 3 -13 23 -17 44 -7 43 -21 70
-31 60 -6 -7 29 -179 47 -226 17 -44 27 -12 13 40 -8 31 -10 56 -4 62 5 5 13
-9 20 -35 20 -78 22 -81 31 -72 13 13 -43 235 -60 241 -10 3 -12 -2 -8 -19z"/>
<path d="M2570 3855 c0 -63 4 -105 10 -105 6 0 10 42 10 105 0 63 -4 105 -10
105 -6 0 -10 -42 -10 -105z"/>
<path d="M2410 3938 c0 -32 23 -194 29 -199 3 -3 17 -3 31 2 l25 7 -22 7 c-18
6 -23 15 -23 41 0 19 5 34 10 34 6 0 10 5 10 10 0 6 -7 10 -15 10 -11 0 -15
11 -15 40 0 22 5 40 10 40 6 0 10 5 10 10 0 6 -11 10 -25 10 -14 0 -25 -5 -25
-12z"/>
<path d="M2696 3913 c-14 -97 -18 -173 -8 -173 13 0 22 24 23 68 2 34 2 33 12
-15 13 -70 29 -67 26 5 -1 31 4 77 10 101 7 23 10 45 7 48 -10 11 -24 -8 -30
-42 -10 -51 -22 -50 -17 1 4 54 -15 59 -23 7z"/>
<path d="M2891 3921 c-12 -8 -51 -145 -51 -183 0 -22 38 -34 56 -16 7 7 21 50
31 95 14 68 15 84 4 97 -15 18 -21 19 -40 7z m26 -38 c-3 -10 -10 -43 -17 -73
-16 -75 -18 -82 -29 -76 -14 9 23 166 40 166 6 0 8 -8 6 -17z"/>
<path d="M3181 3848 c-5 -13 -25 -63 -45 -112 -41 -102 -42 -106 -21 -106 8 0
29 25 46 55 46 82 48 73 5 -28 -16 -37 -14 -61 5 -55 10 3 129 196 129 209 0
25 -23 2 -55 -56 -20 -36 -39 -65 -41 -65 -4 0 31 93 47 123 7 12 7 23 1 29
-10 10 -32 -16 -72 -89 -35 -63 -35 -46 0 31 16 38 30 72 30 77 0 18 -21 8
-29 -13z"/>
<path d="M2105 3745 c-225 -47 -464 -169 -650 -331 -76 -66 -207 -221 -269
-319 -117 -181 -191 -400 -217 -635 -16 -151 3 -397 32 -425 9 -7 10 -1 5 24
-3 18 -11 84 -17 147 -37 407 119 831 417 1128 116 116 238 203 389 277 107
52 307 119 356 119 19 0 34 16 22 23 -5 2 -35 -1 -68 -8z"/>
<path d="M3316 3634 c-55 -81 -57 -86 -40 -99 11 -8 22 -15 27 -15 11 0 9 18
-3 25 -17 10 28 65 47 58 12 -5 14 -1 9 15 -10 30 21 74 45 67 25 -8 24 11 0
25 -11 5 -21 10 -23 10 -2 0 -29 -39 -62 -86z"/>
<path d="M3486 3601 c-9 -10 -24 -40 -32 -66 -15 -51 -30 -75 -46 -75 -6 0 -3
12 7 26 21 32 12 43 -15 19 -26 -24 -25 -51 2 -66 19 -10 25 -8 44 17 13 15
25 39 29 53 11 51 28 81 43 81 13 0 13 -2 -1 -18 -10 -10 -17 -24 -17 -30 0
-20 19 -13 37 14 29 45 -15 85 -51 45z"/>
<path d="M3629 3503 c-1 -5 -2 -13 -3 -20 0 -7 -32 -41 -71 -77 -86 -80 -65
-88 24 -9 41 37 72 57 84 55 17 -3 17 -1 -4 27 -24 32 -28 36 -30 24z"/>
<path d="M3652 3314 c-81 -56 -92 -67 -72 -79 21 -13 8 -23 -62 -50 -105 -40
-288 -136 -402 -212 -169 -113 -295 -219 -491 -417 -332 -333 -564 -653 -752
-1034 -47 -95 -88 -171 -90 -168 -3 3 0 85 7 183 7 98 11 231 9 295 -5 134
-20 170 -77 176 -65 7 -130 -83 -283 -390 -46 -93 -88 -168 -92 -168 -5 0 -6
21 -3 48 3 26 22 169 41 317 65 500 79 685 50 685 -26 0 -34 -35 -55 -217 -11
-98 -36 -304 -55 -458 -55 -451 -55 -495 -6 -495 31 0 56 39 175 275 176 349
216 402 239 315 17 -65 0 -417 -39 -798 l-7 -64 28 4 c27 3 33 14 100 178 84
206 126 290 232 465 313 521 764 1004 1174 1260 152 95 368 193 459 209 l35 6
-32 -17 c-18 -9 -33 -23 -33 -30 0 -10 10 -8 39 7 24 12 42 16 46 10 3 -5 -10
-17 -29 -27 -20 -9 -36 -23 -36 -30 0 -15 12 -17 26 -4 5 6 42 26 82 46 51 25
72 41 72 54 0 43 245 35 394 -14 156 -51 280 -128 398 -247 43 -43 82 -78 88
-78 5 0 10 10 10 22 0 29 -153 178 -248 241 -95 64 -186 104 -302 134 -155 40
-379 31 -556 -22 -14 -5 -23 -2 -27 9 -7 18 48 62 58 46 10 -17 27 -11 21 8
-8 25 40 58 60 41 8 -6 17 -9 20 -6 7 7 -14 47 -24 47 -5 0 -45 -25 -90 -56z
m178 -119 c0 -7 -57 -35 -72 -35 -19 1 34 40 55 40 9 0 17 -2 17 -5z"/>
<path d="M3810 3042 c-52 -20 -96 -36 -98 -37 -1 -1 2 -14 7 -29 12 -29 33
-33 78 -14 15 6 48 18 73 27 33 12 46 22 48 38 7 51 -7 53 -108 15z m90 -6 c0
-15 -56 -33 -67 -22 -3 3 9 12 28 20 42 19 39 19 39 2z m-90 -35 c0 -7 -51
-31 -66 -31 -13 0 0 19 19 28 28 13 47 15 47 3z"/>
<path d="M3855 2881 c-39 -10 -76 -21 -83 -25 -16 -10 -15 -31 2 -49 13 -13
26 -12 103 5 84 19 113 31 101 43 -3 3 -45 -4 -93 -15 -80 -19 -108 -20 -93
-4 3 3 45 14 92 25 47 12 86 25 86 30 0 13 -33 10 -115 -10z"/>
<path d="M3940 2724 c-8 -1 -45 -6 -82 -9 -77 -7 -92 -25 -22 -25 27 0 43 -4
39 -10 -3 -5 -17 -10 -30 -10 -31 0 -55 -10 -55 -22 0 -7 17 -8 48 -4 26 4 68
8 94 10 59 5 68 11 68 47 0 29 -12 34 -60 23z m40 -34 c0 -5 -18 -10 -40 -10
-22 0 -40 5 -40 10 0 6 18 10 40 10 22 0 40 -4 40 -10z"/>
<path d="M3801 2533 c-17 -32 4 -53 54 -53 36 0 45 3 45 18 0 14 -7 17 -40 14
-25 -3 -40 0 -40 7 0 12 108 15 148 5 34 -10 26 -24 -13 -24 -19 0 -35 -5 -35
-11 0 -6 17 -9 43 -7 39 3 42 5 42 33 l0 30 -97 3 c-85 2 -98 0 -107 -15z"/>
<path d="M3860 2305 c0 -154 -51 -395 -114 -543 -220 -512 -681 -836 -1250
-877 -71 -6 -94 -10 -82 -17 28 -15 242 9 368 41 121 32 201 62 312 118 380
192 669 574 756 1003 25 124 38 304 21 314 -8 5 -11 -7 -11 -39z"/>
</g>
</svg>
