<?xml version="1.0" standalone="no"?>
<!DOCTYPE svg PUBLIC "-//W3C//DTD SVG 20010904//EN"
 "http://www.w3.org/TR/2001/REC-SVG-20010904/DTD/svg10.dtd">
<svg version="1.0" xmlns="http://www.w3.org/2000/svg"
 width="600.000000pt" height="129.000000pt" viewBox="0 0 600.000000 129.000000"
 preserveAspectRatio="xMidYMid meet">

<g transform="translate(0.000000,129.000000) scale(0.100000,-0.100000)"
fill="#000000" stroke="none">
<path d="M607 1263 c18 -2 50 -2 70 0 21 2 7 4 -32 4 -38 0 -55 -2 -38 -4z"/>
<path d="M518 1253 c7 -3 16 -2 19 1 4 3 -2 6 -13 5 -11 0 -14 -3 -6 -6z"/>
<path d="M748 1253 c7 -3 16 -2 19 1 4 3 -2 6 -13 5 -11 0 -14 -3 -6 -6z"/>
<path d="M478 1243 c7 -3 16 -2 19 1 4 3 -2 6 -13 5 -11 0 -14 -3 -6 -6z"/>
<path d="M630 1226 c0 -9 7 -16 16 -16 9 0 14 5 12 12 -6 18 -28 21 -28 4z"/>
<path d="M840 1230 c8 -5 20 -10 25 -10 6 0 3 5 -5 10 -8 5 -19 10 -25 10 -5
0 -3 -5 5 -10z"/>
<path d="M390 1215 c-14 -8 -20 -14 -15 -14 6 0 21 6 35 14 14 8 21 14 15 14
-5 0 -21 -6 -35 -14z"/>
<path d="M525 1220 c-4 -6 -3 -16 3 -22 6 -6 12 -6 17 2 4 6 3 16 -3 22 -6 6
-12 6 -17 -2z"/>
<path d="M730 1216 c0 -9 7 -16 16 -16 17 0 14 22 -4 28 -7 2 -12 -3 -12 -12z"/>
<path d="M881 1216 c10 -9 89 -46 89 -41 0 5 -75 45 -86 45 -4 0 -5 -2 -3 -4z"/>
<path d="M455 1200 c-4 -6 -3 -16 3 -22 6 -6 12 -6 17 2 4 6 3 16 -3 22 -6 6
-12 6 -17 -2z"/>
<path d="M308 1171 c-25 -16 -49 -34 -52 -40 -5 -8 88 50 103 65 12 12 -10 1
-51 -25z"/>
<path d="M807 1194 c-8 -8 1 -24 14 -24 5 0 9 7 9 15 0 15 -12 20 -23 9z"/>
<path d="M550 1156 c0 -31 23 -56 38 -41 3 3 0 5 -6 5 -7 0 -12 10 -12 21 0
16 5 20 19 16 14 -3 17 0 14 14 -3 12 -14 19 -29 19 -21 0 -24 -5 -24 -34z"/>
<path d="M687 1168 c-4 -12 -4 -24 -2 -27 3 -2 5 1 5 7 0 7 5 12 11 12 7 0 9
-12 6 -32 -3 -18 -3 -27 0 -20 2 6 11 12 19 12 9 0 14 11 14 35 0 30 -3 35
-24 35 -16 0 -26 -7 -29 -22z"/>
<path d="M627 1151 c-21 -36 -22 -47 -2 -31 8 7 22 10 30 6 18 -7 19 1 2 31
l-13 23 -17 -29z"/>
<path d="M390 1155 c0 -9 5 -15 11 -13 6 2 11 8 11 13 0 5 -5 11 -11 13 -6 2
-11 -4 -11 -13z"/>
<path d="M877 1163 c-12 -11 -8 -23 8 -23 8 0 15 7 15 15 0 16 -12 20 -23 8z"/>
<path d="M980 1167 c0 -2 19 -19 43 -37 23 -19 36 -26 28 -17 -15 19 -71 61
-71 54z"/>
<path d="M437 1132 c-29 -30 -33 -42 -17 -42 6 0 10 7 10 16 0 8 5 12 10 9 6
-3 13 1 16 9 8 21 24 21 24 0 0 -8 5 -12 11 -9 6 4 13 -2 16 -14 3 -12 9 -21
14 -21 17 0 9 16 -24 48 l-33 32 -27 -28z"/>
<path d="M787 1132 c-29 -30 -33 -42 -17 -42 6 0 10 7 10 16 0 8 5 12 10 9 6
-3 14 4 20 17 l9 23 7 -22 c3 -13 10 -20 15 -17 5 3 13 -5 17 -17 5 -13 11
-18 15 -12 7 11 -38 73 -52 73 -4 0 -19 -13 -34 -28z"/>
<path d="M290 1111 c0 -23 16 -36 25 -21 4 6 11 8 16 4 6 -3 3 -12 -8 -20 -10
-7 -13 -14 -7 -14 17 0 37 27 29 40 -4 6 -15 8 -26 5 -21 -7 -27 10 -6 18 7 3
5 6 -5 6 -11 1 -18 -6 -18 -18z"/>
<path d="M181 1063 c-52 -59 -126 -194 -136 -248 -3 -17 3 -9 13 20 33 88 71
154 128 220 68 80 64 86 -5 8z"/>
<path d="M602 1076 c-17 -19 -36 -51 -43 -70 -17 -46 -35 -41 -31 7 2 21 -1
37 -7 37 -6 0 -8 -8 -4 -17 3 -10 -4 -6 -16 10 -12 15 -29 27 -36 27 -16 0
-55 -60 -55 -84 0 -9 -4 -16 -10 -16 -5 0 -10 23 -10 50 0 29 -5 50 -11 50
-23 0 -128 -119 -159 -181 -45 -87 -60 -149 -60 -245 0 -207 123 -395 308
-470 49 -20 60 -29 82 -71 17 -32 38 -55 62 -68 l38 -20 37 20 c26 14 45 35
62 70 22 46 31 53 103 88 54 26 97 56 136 96 l57 57 33 -33 c17 -18 32 -27 32
-21 0 6 -14 23 -31 37 l-31 26 26 50 c47 87 59 147 54 265 -4 98 -8 114 -41
184 -20 42 -39 76 -42 76 -3 0 -4 -4 0 -10 3 -5 5 -62 4 -127 -2 -167 -2 -170
2 -251 l4 -72 -85 -2 -85 -2 83 -3 c75 -4 82 -6 82 -24 0 -12 -8 -34 -17 -50
-16 -27 -21 -29 -85 -29 l-67 0 3 33 c2 17 1 22 -1 10 -3 -14 -9 -20 -18 -17
-8 3 -11 13 -7 22 4 12 -1 10 -18 -6 -28 -26 -34 -27 -53 -7 -9 9 -17 11 -19
5 -2 -6 -39 -12 -83 -14 -44 -1 -74 -1 -67 1 6 3 12 9 12 15 0 5 -15 0 -34
-11 -42 -26 -54 -27 -31 -1 18 20 17 20 -23 20 -29 0 -42 -4 -42 -14 0 -7 -10
-16 -22 -20 -36 -9 -43 -7 -23 7 15 12 18 26 16 93 -1 50 4 95 14 123 17 48
20 74 6 52 -13 -20 -41 3 -41 33 1 37 38 105 64 118 20 8 23 14 15 24 -6 7 -9
21 -7 32 2 10 -4 27 -12 37 -14 17 -14 17 6 7 17 -9 21 -9 20 1 0 6 4 12 9 12
6 0 9 -4 7 -9 -2 -5 4 -4 12 4 19 15 22 0 4 -18 -7 -7 -8 -12 -2 -12 6 0 16
-11 22 -25 9 -20 9 -25 -2 -25 -7 0 -18 -6 -24 -12 -8 -10 -4 -13 15 -15 27
-1 103 64 103 89 0 10 2 10 9 -1 6 -9 6 -22 0 -33 -5 -10 -7 -18 -5 -18 3 0
-6 -11 -19 -25 -18 -17 -25 -35 -25 -64 0 -29 -6 -44 -20 -54 -18 -13 -19 -19
-10 -67 5 -29 10 -83 10 -120 0 -67 0 -68 29 -72 18 -3 28 0 24 6 -4 5 1 7 11
3 15 -6 16 -2 10 31 -4 20 -10 44 -15 53 -5 9 -5 30 0 46 5 16 6 52 4 80 -3
44 -1 53 17 63 17 9 18 14 9 31 -14 28 -4 49 24 49 17 0 26 -9 35 -33 17 -46
15 -60 -4 -53 -13 5 -14 3 -6 -6 5 -7 12 -26 14 -42 1 -16 9 -31 16 -34 9 -3
11 3 6 22 -5 22 -3 26 15 26 24 0 25 -4 10 -32 -9 -17 -8 -19 8 -16 10 2 18
12 18 23 0 11 5 19 12 18 7 -2 10 4 7 12 -4 8 -10 12 -15 9 -18 -11 -31 8 -16
24 25 30 28 51 6 63 -26 13 -22 59 6 74 12 6 19 17 17 29 -3 13 0 16 9 11 8
-6 10 -4 5 4 -11 17 22 51 48 51 41 0 66 -28 66 -73 1 -64 4 -95 13 -103 4 -4
7 -48 8 -98 0 -72 2 -86 11 -66 5 14 8 57 5 95 -2 39 -1 108 3 155 l7 85 -62
63 c-35 34 -68 62 -75 62 -8 0 -11 -15 -8 -45 2 -25 -1 -44 -7 -44 -5 0 -9 15
-7 34 2 21 -1 35 -8 35 -6 0 -8 -6 -4 -12 4 -7 -4 -3 -18 10 -13 12 -29 22
-35 22 -14 0 -53 -62 -53 -84 0 -30 -19 -16 -39 29 -20 45 -62 95 -80 95 -5 0
-22 -15 -39 -34z m44 -42 c-3 -9 -6 -20 -6 -26 0 -6 -7 -8 -15 -4 -8 3 -15 2
-15 -3 0 -5 8 -11 18 -15 9 -3 23 -9 30 -12 11 -5 12 -2 3 14 -16 29 -14 38 9
38 15 0 18 -5 14 -19 -3 -10 0 -24 6 -32 10 -12 9 -15 -9 -15 -12 0 -24 -7
-28 -16 -6 -16 -7 -15 -18 0 -7 9 -18 15 -25 14 -8 -2 -13 9 -14 30 -1 24 3
32 17 32 9 0 17 7 17 15 0 8 5 15 11 15 6 0 8 -7 5 -16z m-306 -131 c0 -15 2
-14 15 3 13 17 14 17 15 2 0 -11 5 -15 15 -12 11 5 13 2 9 -9 -4 -11 -14 -15
-32 -11 -22 4 -32 -1 -50 -25 -18 -25 -20 -31 -7 -31 8 0 20 11 25 25 5 14 16
25 25 25 17 0 21 -35 5 -45 -8 -5 -7 -11 1 -21 15 -19 29 -8 29 22 0 35 14 29
29 -12 11 -30 11 -41 0 -61 -10 -19 -10 -28 -1 -44 11 -16 9 -19 -9 -19 -21 0
-21 -2 -14 -114 7 -117 0 -156 -30 -156 -23 0 -18 -26 8 -43 22 -16 22 -16
-13 -15 -19 0 -48 3 -65 7 -29 6 -30 8 -29 56 1 28 5 65 9 84 6 27 5 33 -6 29
-8 -3 -13 -16 -11 -29 2 -19 0 -21 -8 -9 -11 17 -11 17 -15 -27 -2 -23 2 -33
11 -33 8 0 14 -5 14 -10 0 -7 -6 -7 -18 -1 -12 7 -18 23 -20 57 -1 26 -6 50
-11 53 -4 3 -7 50 -6 103 3 93 5 99 34 130 17 18 31 36 31 39 0 3 14 21 31 40
17 20 28 41 25 51 -2 10 0 18 5 18 5 0 9 -8 9 -17z m168 -620 c5 -82 -4 -88
-67 -56 -73 38 -137 93 -119 104 7 5 51 8 98 7 l85 -3 3 -52z m262 -3 l0 -60
-125 0 -125 0 0 53 c0 30 3 57 7 60 3 4 60 7 125 7 l118 0 0 -60z m217 48 c-2
-7 -11 -12 -20 -12 -9 1 -15 -2 -12 -6 10 -16 -73 -74 -140 -100 l-25 -10 0
70 0 70 101 0 c76 0 100 -3 96 -12z m-413 -133 c3 -8 10 -15 16 -15 5 0 10 7
10 15 0 8 7 15 15 15 8 0 14 -6 13 -12 -2 -7 4 -13 12 -13 8 0 14 6 13 13 -4
17 24 15 31 -3 3 -8 10 -15 16 -15 5 0 10 7 10 15 0 8 7 15 16 15 8 0 12 -5 9
-10 -3 -6 1 -13 9 -16 20 -8 20 -21 1 -40 -8 -8 -12 -21 -8 -29 4 -11 1 -13
-12 -8 -15 5 -17 2 -12 -16 4 -16 1 -21 -11 -19 -10 2 -17 -4 -17 -12 0 -14
-18 -28 -40 -29 -6 -1 -25 13 -43 29 -18 17 -30 30 -25 30 4 0 1 6 -8 13 -9 7
-20 23 -24 37 -7 22 -6 23 9 11 14 -12 16 -11 16 9 0 15 -5 20 -14 17 -10 -4
-14 0 -13 14 2 23 22 26 31 4z"/>
<path d="M260 735 c-8 -10 -10 -26 -4 -52 6 -30 9 -33 12 -15 2 12 7 22 12 22
8 0 4 49 -4 58 -2 1 -9 -4 -16 -13z"/>
<path d="M380 729 c0 -11 5 -17 10 -14 6 3 10 13 10 21 0 8 -4 14 -10 14 -5 0
-10 -9 -10 -21z"/>
<path d="M347 696 c-3 -8 -2 -18 3 -21 13 -8 13 -55 0 -55 -5 0 -3 -18 5 -41
12 -32 12 -51 4 -90 -12 -56 -7 -71 18 -46 14 14 15 21 4 43 -9 21 -9 29 1 42
10 12 10 16 1 19 -9 3 -13 27 -13 71 0 69 -12 108 -23 78z"/>
<path d="M245 632 c4 -15 1 -24 -9 -28 -23 -9 -20 -51 3 -57 30 -8 41 6 38 50
-1 23 -6 39 -11 36 -4 -3 -13 1 -18 8 -7 10 -7 7 -3 -9z"/>
<path d="M321 535 c-1 -5 -8 -32 -16 -58 -11 -36 -11 -47 -2 -44 12 4 30 84
23 102 -3 7 -5 7 -5 0z"/>
<path d="M292 403 c2 -10 10 -18 18 -18 8 0 16 8 18 18 2 12 -3 17 -18 17 -15
0 -20 -5 -18 -17z"/>
<path d="M410 316 c0 -9 30 -14 35 -6 4 6 -3 10 -14 10 -12 0 -21 -2 -21 -4z"/>
<path d="M384 295 c22 -17 36 -19 36 -6 0 10 -24 21 -43 21 -7 0 -3 -7 7 -15z"/>
<path d="M474 289 c-3 -6 -1 -16 5 -22 8 -8 11 -5 11 11 0 24 -5 28 -16 11z"/>
<path d="M400 265 c0 -2 14 -12 31 -21 21 -10 29 -11 23 -3 -5 9 -2 10 11 5
15 -5 16 -4 5 9 -10 11 -15 13 -20 4 -6 -8 -9 -8 -14 0 -7 11 -36 16 -36 6z"/>
<path d="M558 283 c-5 -18 -2 -23 13 -23 11 0 19 7 19 18 0 14 -2 14 -9 3 -7
-11 -10 -10 -13 5 -3 17 -4 17 -10 -3z"/>
<path d="M638 283 c-5 -18 -2 -23 13 -23 11 0 19 7 19 18 0 14 -2 14 -9 3 -7
-11 -10 -10 -13 5 -3 17 -4 17 -10 -3z"/>
<path d="M720 290 c0 -5 5 -10 11 -10 5 0 7 5 4 10 -3 6 -8 10 -11 10 -2 0 -4
-4 -4 -10z"/>
<path d="M718 263 c6 -2 18 -2 25 0 6 3 1 5 -13 5 -14 0 -19 -2 -12 -5z"/>
<path d="M855 310 c4 -6 11 -8 16 -5 14 9 11 15 -7 15 -8 0 -12 -5 -9 -10z"/>
<path d="M801 280 c0 -29 1 -32 10 -17 7 11 7 23 0 35 -9 14 -10 11 -10 -18z"/>
<path d="M825 300 c3 -5 11 -10 16 -10 6 0 7 5 4 10 -3 6 -11 10 -16 10 -6 0
-7 -4 -4 -10z"/>
<path d="M880 295 c-17 -20 7 -20 34 0 19 15 19 15 -1 15 -11 0 -26 -7 -33
-15z"/>
<path d="M825 259 c-11 -17 1 -21 15 -4 8 9 8 15 2 15 -6 0 -14 -5 -17 -11z"/>
<path d="M856 255 c-4 -13 -2 -14 14 -5 23 13 26 20 6 20 -8 0 -16 -7 -20 -15z"/>
<path d="M605 170 c-4 -6 -3 -16 3 -22 6 -6 12 -6 17 2 4 6 3 16 -3 22 -6 6
-12 6 -17 -2z"/>
<path d="M657 174 c-8 -8 3 -34 14 -34 5 0 9 9 9 20 0 19 -11 26 -23 14z"/>
<path d="M715 170 c-4 -6 -3 -16 3 -22 6 -6 12 -6 17 2 4 6 3 16 -3 22 -6 6
-12 6 -17 -2z"/>
<path d="M685 140 c-4 -6 -3 -16 3 -22 6 -6 12 -6 17 2 4 6 3 16 -3 22 -6 6
-12 6 -17 -2z"/>
<path d="M577 134 c-8 -8 1 -24 14 -24 5 0 9 7 9 15 0 15 -12 20 -23 9z"/>
<path d="M630 125 c0 -9 5 -15 11 -13 6 2 11 8 11 13 0 5 -5 11 -11 13 -6 2
-11 -4 -11 -13z"/>
<path d="M605 100 c-4 -6 -3 -16 3 -22 6 -6 12 -6 17 2 4 6 3 16 -3 22 -6 6
-12 6 -17 -2z"/>
<path d="M657 104 c-9 -9 4 -35 14 -28 5 3 9 12 9 20 0 14 -12 19 -23 8z"/>
<path d="M634 67 c-8 -21 2 -35 16 -21 5 5 6 15 0 24 -8 12 -10 12 -16 -3z"/>
<path d="M994 1085 c-3 -8 -3 -19 1 -25 3 -5 2 -10 -4 -10 -5 0 -12 6 -14 13
-4 7 -6 8 -6 1 -1 -6 5 -17 13 -23 10 -8 16 -8 25 3 8 9 8 16 2 20 -6 4 -8 13
-4 21 3 8 2 15 -1 15 -4 0 -9 -7 -12 -15z"/>
<path d="M250 1083 c1 -11 50 -46 50 -35 0 10 -33 42 -43 42 -4 0 -7 -3 -7 -7z"/>
<path d="M220 1067 c0 -7 15 -24 33 -37 l32 -23 -28 30 c-15 16 -24 32 -20 36
3 4 1 7 -5 7 -7 0 -12 -6 -12 -13z"/>
<path d="M550 1060 c0 -11 2 -20 4 -20 2 0 6 9 9 20 3 11 1 20 -4 20 -5 0 -9
-9 -9 -20z"/>
<path d="M720 1073 c0 -4 5 -15 10 -23 8 -13 10 -13 10 2 0 9 -4 20 -10 23 -5
3 -10 3 -10 -2z"/>
<path d="M1115 1040 c10 -11 20 -20 23 -20 3 0 -3 9 -13 20 -10 11 -20 20 -23
20 -3 0 3 -9 13 -20z"/>
<path d="M186 1014 c-6 -17 32 -56 47 -47 4 2 -3 13 -15 23 -13 10 -20 22 -16
26 5 4 16 -1 27 -10 10 -10 22 -13 25 -8 3 5 -6 14 -20 21 -33 15 -41 14 -48
-5z"/>
<path d="M1064 992 c-19 -16 -20 -20 -7 -38 8 -10 18 -26 23 -34 7 -12 11 -13
21 -2 15 14 39 16 39 3 0 -5 -9 -13 -20 -16 -11 -3 -20 -10 -20 -15 0 -5 11
-4 25 2 26 12 30 24 16 47 -7 10 -13 11 -31 1 -31 -17 -37 -4 -9 19 13 11 19
20 12 21 -6 0 -15 -4 -18 -10 -3 -5 -13 -10 -22 -10 -13 0 -12 5 7 25 27 29
16 33 -16 7z"/>
<path d="M1155 986 c10 -14 19 -26 22 -26 7 0 -17 39 -28 46 -6 3 -3 -5 6 -20z"/>
<path d="M163 959 c-2 -22 34 -36 51 -19 8 9 7 11 -4 10 -8 -1 -22 -2 -30 -1
-12 1 -12 3 -2 10 11 7 11 9 0 14 -9 3 -14 -2 -15 -14z"/>
<path d="M136 921 c5 -5 20 -12 34 -15 24 -7 24 -6 6 8 -21 17 -57 23 -40 7z"/>
<path d="M2657 923 c-12 -11 -8 -23 8 -23 8 0 15 7 15 15 0 16 -12 20 -23 8z"/>
<path d="M3520 900 c0 -27 -2 -29 -29 -24 -22 5 -32 1 -45 -17 -20 -29 -21
-68 -1 -96 12 -17 25 -22 55 -20 l40 1 0 93 c0 55 -4 93 -10 93 -5 0 -10 -13
-10 -30z m-12 -52 c30 -30 4 -96 -32 -82 -28 11 -16 94 14 94 3 0 11 -5 18
-12z"/>
<path d="M4186 923 c-11 -11 -6 -23 9 -23 8 0 15 4 15 9 0 13 -16 22 -24 14z"/>
<path d="M4736 923 c-11 -11 -6 -23 9 -23 8 0 15 4 15 9 0 13 -16 22 -24 14z"/>
<path d="M4896 923 c-11 -11 -6 -23 9 -23 8 0 15 4 15 9 0 13 -16 22 -24 14z"/>
<path d="M4955 919 c-10 -15 3 -25 16 -12 7 7 7 13 1 17 -6 3 -14 1 -17 -5z"/>
<path d="M5675 919 c-10 -15 3 -25 16 -12 7 7 7 13 1 17 -6 3 -14 1 -17 -5z"/>
<path d="M5736 921 c-4 -7 -5 -15 -2 -18 9 -9 19 4 14 18 -4 11 -6 11 -12 0z"/>
<path d="M5810 835 c0 -57 4 -95 10 -95 6 0 10 38 10 95 0 57 -4 95 -10 95 -6
0 -10 -38 -10 -95z"/>
<path d="M1440 830 c0 -53 4 -90 10 -90 6 0 10 37 10 90 0 53 -4 90 -10 90 -6
0 -10 -37 -10 -90z"/>
<path d="M1510 830 c0 -53 4 -90 10 -90 6 0 10 27 10 60 0 33 3 60 8 60 4 0
24 -27 45 -60 54 -87 67 -81 67 30 0 72 -3 90 -15 90 -10 0 -15 -16 -17 -62
l-3 -63 -38 63 c-55 88 -67 83 -67 -28z"/>
<path d="M1830 830 c0 -53 4 -90 10 -90 6 0 10 13 10 29 0 16 6 34 14 40 12
10 20 5 42 -28 15 -23 33 -41 40 -41 20 0 18 6 -16 55 -16 24 -30 46 -30 49 0
3 14 21 31 41 26 29 28 35 13 35 -10 0 -35 -19 -56 -42 l-37 -43 -1 43 c0 23
-4 42 -10 42 -6 0 -10 -37 -10 -90z"/>
<path d="M1996 898 c-9 -12 -16 -42 -16 -66 0 -76 72 -120 120 -72 29 29 31
111 3 143 -24 26 -88 23 -107 -5z m90 -23 c27 -41 2 -115 -40 -115 -31 0 -50
102 -24 128 19 19 46 14 64 -13z"/>
<path d="M2222 833 c2 -58 7 -88 16 -91 9 -3 12 19 12 87 0 75 -3 91 -15 91
-13 0 -15 -14 -13 -87z"/>
<path d="M3870 846 c0 -66 3 -77 22 -90 12 -9 32 -16 43 -16 11 0 31 7 43 16
19 13 22 24 22 90 0 59 -3 74 -15 74 -12 0 -15 -15 -15 -74 0 -66 -2 -75 -20
-81 -37 -12 -50 11 -50 86 0 55 -3 69 -15 69 -12 0 -15 -15 -15 -74z"/>
<path d="M5500 830 c0 -73 3 -90 15 -90 10 0 15 10 15 29 0 16 6 34 14 40 10
9 19 3 40 -29 14 -22 33 -40 41 -40 18 0 12 14 -29 69 l-25 34 30 36 c44 53
13 53 -33 0 l-38 -44 0 43 c0 31 -4 42 -15 42 -12 0 -15 -17 -15 -90z"/>
<path d="M2570 896 c0 -8 -6 -17 -12 -20 -10 -5 -10 -7 0 -12 7 -3 12 -24 12
-48 0 -52 19 -82 46 -72 18 7 18 8 2 17 -13 7 -18 23 -18 54 0 36 4 45 18 45
16 1 16 1 0 14 -10 7 -18 18 -18 25 0 6 -7 11 -15 11 -8 0 -15 -6 -15 -14z"/>
<path d="M2713 885 c-6 -14 -7 -25 -2 -25 5 0 9 -15 9 -34 0 -51 16 -86 40
-86 23 0 27 15 5 24 -22 8 -20 82 3 95 16 9 16 10 0 16 -10 4 -18 13 -18 21 0
23 -24 16 -37 -11z"/>
<path d="M2950 896 c0 -8 -6 -17 -12 -19 -10 -4 -10 -7 -1 -14 6 -5 13 -30 15
-57 2 -33 9 -53 20 -60 21 -13 36 0 20 16 -16 16 -15 95 1 102 10 5 10 7 0 12
-7 3 -13 12 -13 20 0 8 -7 14 -15 14 -8 0 -15 -6 -15 -14z"/>
<path d="M4800 896 c0 -8 -6 -17 -12 -19 -10 -4 -10 -7 -1 -14 6 -5 13 -30 15
-57 2 -33 9 -53 20 -60 21 -13 36 0 20 16 -16 16 -15 95 1 102 10 5 10 7 0 12
-7 3 -13 12 -13 20 0 8 -7 14 -15 14 -8 0 -15 -6 -15 -14z"/>
<path d="M5030 896 c0 -8 -7 -17 -17 -20 -15 -6 -15 -8 0 -19 10 -7 17 -31 19
-62 3 -43 6 -50 26 -53 25 -4 30 13 7 22 -10 3 -15 19 -15 46 0 27 5 43 15 46
8 4 15 10 15 15 0 5 -7 9 -15 9 -8 0 -15 7 -15 15 0 8 -4 15 -10 15 -5 0 -10
-6 -10 -14z"/>
<path d="M117 893 c-13 -12 -7 -43 7 -43 8 0 23 -3 33 -6 10 -3 6 2 -9 11 -37
21 -35 28 5 20 l32 -6 -29 15 c-33 18 -31 18 -39 9z"/>
<path d="M1133 876 c-24 -11 -33 -32 -10 -22 6 3 20 9 30 12 9 4 17 10 17 15
0 11 -8 10 -37 -5z"/>
<path d="M1210 885 c0 -5 5 -17 10 -25 5 -8 10 -10 10 -5 0 6 -5 17 -10 25 -5
8 -10 11 -10 5z"/>
<path d="M1700 860 c-11 -11 -20 -33 -20 -50 0 -57 69 -93 101 -53 13 15 11
16 -14 9 -18 -4 -34 -2 -43 5 -25 20 -15 29 31 29 44 0 45 1 39 28 -12 52 -58
68 -94 32z m58 -12 c19 -19 14 -28 -18 -28 -16 0 -30 4 -30 8 0 9 21 32 30 32
3 0 11 -5 18 -12z"/>
<path d="M2290 808 c0 -54 3 -68 15 -68 11 0 15 13 15 54 0 40 4 55 16 60 27
10 34 -3 34 -60 0 -41 4 -54 15 -54 12 0 15 13 15 59 0 69 -9 79 -67 78 l-43
-2 0 -67z"/>
<path d="M2446 864 c-9 -8 -16 -19 -16 -24 0 -15 31 -40 50 -40 24 0 36 -18
21 -33 -8 -8 -18 -7 -36 3 -14 7 -28 10 -32 6 -11 -11 27 -36 53 -36 22 0 54
24 54 40 0 15 -31 40 -50 40 -24 0 -36 18 -21 33 9 9 17 8 32 -1 27 -17 40 -5
15 14 -26 18 -51 18 -70 -2z"/>
<path d="M2657 873 c-4 -3 -7 -35 -7 -70 0 -49 3 -63 15 -63 12 0 15 14 15 70
0 64 -6 81 -23 63z"/>
<path d="M2800 829 c0 -74 11 -89 65 -87 l45 2 0 69 c0 85 -22 89 -30 6 -4
-46 -8 -54 -25 -54 -17 0 -20 8 -23 58 -2 42 -7 57 -17 57 -11 0 -15 -13 -15
-51z"/>
<path d="M3104 863 c-20 -20 -1 -32 21 -13 18 15 45 6 45 -14 0 -9 -12 -16
-31 -18 -39 -4 -59 -30 -43 -55 8 -13 25 -18 58 -19 l46 -2 0 47 c0 26 -7 56
-16 69 -18 26 -56 29 -80 5z m66 -67 c0 -18 -27 -39 -40 -31 -14 9 -13 32 3
38 23 10 37 7 37 -7z"/>
<path d="M3230 808 c0 -54 3 -68 15 -68 11 0 15 13 15 54 0 40 4 55 16 60 27
10 34 -3 34 -60 0 -41 4 -54 15 -54 11 0 15 12 15 51 0 74 -11 88 -65 86 l-45
-2 0 -67z"/>
<path d="M3601 862 c-44 -35 -20 -122 34 -122 27 0 62 24 47 34 -6 3 -13 2
-17 -4 -11 -17 -44 -11 -55 10 -10 19 -8 20 35 20 38 0 45 3 45 20 0 23 -33
60 -54 60 -8 0 -24 -8 -35 -18z m43 -8 c28 -11 18 -34 -14 -34 -28 0 -30 2
-20 20 12 22 12 22 34 14z"/>
<path d="M3720 808 c0 -39 4 -68 10 -68 6 0 10 18 10 39 0 49 8 71 26 71 8 0
14 6 14 13 0 8 -12 14 -30 14 l-30 0 0 -69z"/>
<path d="M4040 810 c0 -40 4 -70 10 -70 6 0 10 22 10 49 0 31 5 53 15 61 26
21 45 -5 45 -61 0 -27 5 -49 10 -49 6 0 10 26 10 59 0 70 -16 91 -55 73 -15
-7 -25 -8 -25 -2 0 6 -4 10 -10 10 -6 0 -10 -30 -10 -70z"/>
<path d="M4180 810 c0 -56 3 -70 15 -70 12 0 15 14 15 70 0 56 -3 70 -15 70
-12 0 -15 -14 -15 -70z"/>
<path d="M4241 863 c1 -35 36 -118 49 -118 13 0 48 83 49 118 2 35 -19 16 -30
-28 -6 -25 -14 -45 -18 -45 -4 0 -12 20 -19 45 -12 44 -33 62 -31 28z"/>
<path d="M4389 862 c-43 -36 -18 -122 36 -122 27 0 62 24 47 34 -6 3 -13 2
-17 -4 -11 -17 -44 -11 -55 10 -10 19 -8 20 35 20 38 0 45 3 45 20 0 23 -33
60 -54 60 -8 0 -24 -8 -37 -18z m45 -8 c28 -11 18 -34 -14 -34 -28 0 -30 2
-20 20 12 22 12 22 34 14z"/>
<path d="M4510 808 c0 -39 4 -68 10 -68 6 0 10 23 10 51 0 42 3 52 20 56 31 8
24 30 -10 30 l-30 0 0 -69z"/>
<path d="M4618 869 c-33 -19 -15 -69 23 -69 23 0 34 -19 20 -33 -8 -8 -18 -7
-36 3 -30 16 -42 8 -20 -14 20 -19 55 -21 79 -3 27 20 16 50 -24 63 -19 6 -36
16 -38 23 -6 17 26 25 43 11 22 -19 41 -7 21 13 -20 19 -43 21 -68 6z"/>
<path d="M4730 810 c0 -56 3 -70 15 -70 12 0 15 14 15 70 0 56 -3 70 -15 70
-12 0 -15 -14 -15 -70z"/>
<path d="M4894 866 c-25 -19 -9 -34 18 -17 17 11 23 10 36 -3 17 -17 15 -18
-40 -30 -23 -5 -28 -12 -28 -36 0 -31 10 -37 76 -38 l31 -1 -5 57 c-6 76 -40
103 -88 68z m61 -75 c0 -22 -32 -38 -46 -24 -9 9 -9 16 1 28 15 19 45 16 45
-4z"/>
<path d="M5160 865 c0 -10 10 -15 30 -15 17 0 30 -3 30 -6 0 -3 -13 -23 -30
-44 -16 -21 -30 -43 -30 -49 0 -7 21 -11 55 -11 30 0 55 5 55 10 0 6 -16 10
-35 10 -19 0 -35 3 -35 8 0 4 14 25 30 46 43 56 40 66 -20 66 -38 0 -50 -4
-50 -15z"/>
<path d="M5293 865 c-7 -19 2 -103 12 -113 3 -4 26 -7 51 -8 l44 -2 0 69 c0
39 -4 69 -10 69 -5 0 -10 -22 -10 -49 0 -51 -18 -78 -45 -67 -11 4 -15 21 -15
61 0 53 -14 73 -27 40z"/>
<path d="M5684 872 c-16 -11 -34 -48 -34 -71 0 -28 34 -61 63 -61 55 0 80 93
35 124 -24 17 -47 20 -64 8z m50 -28 c20 -19 20 -44 2 -70 -12 -15 -18 -17
-33 -8 -22 13 -29 60 -12 80 15 18 24 18 43 -2z"/>
<path d="M5870 808 c0 -51 3 -69 13 -66 7 3 13 26 15 54 3 49 15 66 39 57 9
-3 13 -23 13 -59 0 -43 3 -54 16 -54 14 0 16 10 12 60 -2 33 -7 63 -11 67 -4
4 -28 8 -52 8 l-45 2 0 -69z"/>
<path d="M1153 848 c-13 -6 -23 -18 -23 -26 0 -14 2 -14 13 -1 6 8 19 20 27
27 17 14 13 14 -17 0z"/>
<path d="M93 824 c-7 -19 -5 -21 31 -30 23 -6 27 -4 24 11 -4 25 -47 40 -55
19z m47 -14 c0 -13 -11 -13 -30 0 -12 8 -11 10 8 10 12 0 22 -4 22 -10z"/>
<path d="M1166 824 c-17 -12 -17 -14 -4 -14 9 0 20 5 23 11 11 17 2 18 -19 3z"/>
<path d="M906 804 c-4 -14 -11 -22 -17 -18 -6 3 -3 -5 6 -20 10 -15 16 -38 13
-55 -4 -25 -2 -27 13 -18 14 8 15 15 7 30 -7 13 -6 28 2 48 10 23 9 31 -3 43
-13 14 -16 13 -21 -10z"/>
<path d="M1158 793 c-10 -2 -18 -12 -17 -21 0 -11 3 -12 6 -5 3 8 14 11 28 7
12 -3 26 -1 29 4 4 6 -3 8 -16 5 -19 -4 -20 -3 -8 6 15 11 8 12 -22 4z"/>
<path d="M32 760 c0 -14 2 -19 5 -12 2 6 2 18 0 25 -3 6 -5 1 -5 -13z"/>
<path d="M71 776 c11 -12 69 -25 69 -15 0 5 -6 9 -12 9 -7 0 -24 3 -38 7 -14
3 -22 3 -19 -1z"/>
<path d="M1252 740 c0 -14 2 -19 5 -12 2 6 2 18 0 25 -3 6 -5 1 -5 -13z"/>
<path d="M1173 743 c-13 -2 -23 -8 -23 -12 0 -5 12 -6 26 -3 19 3 25 1 20 -7
-4 -6 -2 -11 3 -11 6 0 11 9 11 20 0 11 -3 19 -7 19 -5 -1 -18 -4 -30 -6z"/>
<path d="M72 723 c3 -19 30 -28 53 -19 25 9 5 36 -27 36 -23 0 -29 -4 -26 -17z
m48 -3 c0 -5 -6 -10 -14 -10 -8 0 -18 5 -21 10 -3 6 3 10 14 10 12 0 21 -4 21
-10z"/>
<path d="M23 645 c0 -38 2 -53 4 -32 2 20 2 52 0 70 -2 17 -4 1 -4 -38z"/>
<path d="M1165 690 c-4 -7 3 -8 22 -4 38 9 42 14 10 14 -14 0 -29 -5 -32 -10z"/>
<path d="M68 684 c-12 -12 13 -34 38 -34 16 0 24 6 24 17 0 13 -3 14 -12 5
-17 -17 -36 -15 -40 4 -2 9 -6 12 -10 8z"/>
<path d="M1440 680 c0 -7 764 -10 2271 -10 1511 0 2268 3 2264 10 -4 7 -772
10 -2271 10 -1503 0 -2264 -3 -2264 -10z"/>
<path d="M885 661 c-14 -14 -2 -28 20 -23 30 5 34 28 5 28 -12 0 -23 -2 -25
-5z"/>
<path d="M1160 660 c0 -5 14 -10 30 -10 17 0 30 5 30 10 0 6 -13 10 -30 10
-16 0 -30 -4 -30 -10z"/>
<path d="M1160 623 c0 -5 13 -8 29 -8 16 0 33 3 37 8 4 4 -9 7 -29 7 -20 0
-37 -3 -37 -7z"/>
<path d="M805 609 c-16 -4 -24 -7 -16 -8 8 0 11 -4 8 -7 -4 -4 -13 -2 -21 5
-11 9 -15 7 -19 -9 -8 -30 3 -59 19 -53 20 8 28 -24 16 -63 -6 -20 -6 -36 -1
-40 5 -3 7 -10 4 -15 -4 -5 -2 -9 3 -9 13 0 22 35 22 85 0 22 5 58 10 80 5 22
8 40 7 40 -1 1 -15 -2 -32 -6z"/>
<path d="M1448 593 c-2 -10 -1 -38 3 -63 l6 -45 1 43 c1 26 7 42 15 42 9 0 8
3 -2 9 -7 5 -10 14 -7 20 4 6 3 11 -2 11 -5 0 -11 -8 -14 -17z"/>
<path d="M1718 558 c-2 -39 -7 -53 -18 -53 -23 0 -25 46 -3 63 17 13 17 14 -2
10 -14 -2 -21 -12 -23 -34 -4 -36 15 -55 46 -47 19 5 22 12 22 59 0 69 -18 71
-22 2z"/>
<path d="M1920 550 l0 -60 38 2 c36 1 36 1 5 5 -27 4 -33 9 -33 28 0 18 6 25
28 28 l27 4 -27 2 c-21 1 -28 6 -28 20 0 15 8 21 33 24 31 4 31 4 -5 5 l-38 2
0 -60z"/>
<path d="M2392 555 c-1 -47 1 -56 9 -42 10 18 12 18 36 -5 l26 -23 -17 27
c-14 22 -15 31 -5 50 12 22 11 23 -8 6 -27 -25 -31 -23 -36 15 -2 18 -4 6 -5
-28z"/>
<path d="M2483 550 c0 -36 2 -50 4 -32 2 17 2 47 0 65 -2 17 -4 3 -4 -33z"/>
<path d="M3403 555 c0 -33 2 -45 4 -27 2 18 2 45 0 60 -2 15 -4 0 -4 -33z"/>
<path d="M3837 588 c-4 -12 -4 -32 -1 -43 6 -24 -19 -51 -36 -40 -16 10 -12
53 8 64 9 6 12 11 7 11 -31 1 -47 -57 -22 -78 7 -6 23 -9 35 -5 19 5 22 12 22
59 0 58 -4 67 -13 32z"/>
<path d="M4813 555 c0 -33 2 -45 4 -27 2 18 2 45 0 60 -2 15 -4 0 -4 -33z"/>
<path d="M5018 604 c-12 -11 -10 -104 2 -104 6 0 10 9 10 20 0 26 8 25 38 -2
25 -23 22 -8 -5 24 -10 11 -11 18 -4 23 6 3 16 16 22 28 10 18 7 17 -19 -7
l-30 -28 -4 27 c-2 15 -6 23 -10 19z"/>
<path d="M2098 588 c-8 -24 8 -92 22 -96 12 -4 13 -2 3 9 -15 15 -17 66 -4 71
5 2 3 8 -4 15 -10 9 -15 9 -17 1z"/>
<path d="M4029 588 c-4 -37 8 -98 19 -98 5 0 7 51 3 103 -1 12 -21 8 -22 -5z"/>
<path d="M5522 584 c-7 -8 -8 -14 -2 -14 5 0 10 -15 10 -34 0 -19 3 -37 8 -39
7 -5 8 91 0 98 -1 2 -9 -3 -16 -11z"/>
<path d="M1159 588 c-11 -37 -7 -44 23 -43 17 0 33 5 35 11 2 7 -6 10 -22 7
-28 -6 -35 13 -7 20 13 4 11 5 -5 6 -13 0 -23 0 -24 -1z"/>
<path d="M1504 540 c1 -42 3 -45 29 -46 26 -1 27 1 26 45 l-2 46 -6 -40 c-4
-26 -11 -40 -21 -40 -10 0 -17 14 -21 40 l-7 40 2 -45z"/>
<path d="M1592 531 c1 -41 2 -42 5 -11 3 19 9 40 14 46 5 7 3 11 -6 11 -11 0
-15 -12 -13 -46z"/>
<path d="M1763 540 c0 -25 2 -35 4 -22 2 12 2 32 0 45 -2 12 -4 2 -4 -23z"/>
<path d="M1810 566 c-25 -31 13 -97 40 -70 8 8 4 10 -11 10 -12 -1 -24 5 -26
12 -3 8 6 12 26 12 34 0 36 2 21 31 -13 23 -33 25 -50 5z m40 -11 c0 -8 -9
-15 -20 -15 -20 0 -26 11 -13 23 12 13 33 7 33 -8z"/>
<path d="M2011 531 l2 -46 6 40 c4 26 11 40 21 40 10 0 17 -14 21 -40 l7 -40
-2 45 c-1 42 -3 45 -28 46 -27 1 -28 -1 -27 -45z"/>
<path d="M2152 540 c6 -22 14 -40 19 -40 12 0 11 17 -1 25 -5 3 -10 15 -10 25
0 10 -4 21 -9 24 -5 3 -4 -12 1 -34z"/>
<path d="M2187 558 c-4 -12 -4 -24 -2 -27 3 -2 5 1 5 8 0 7 5 9 10 6 6 -3 10
1 10 9 0 25 -17 27 -23 4z"/>
<path d="M2235 551 c-4 -17 -11 -29 -16 -25 -11 6 -12 -7 -1 -24 6 -9 13 1 21
29 7 22 10 43 8 46 -3 2 -8 -9 -12 -26z"/>
<path d="M2273 535 c0 -27 2 -38 4 -22 2 15 2 37 0 50 -2 12 -4 0 -4 -28z"/>
<path d="M2323 573 c-18 -7 -16 -70 2 -77 19 -7 45 3 45 16 0 6 -6 5 -15 -2
-19 -16 -35 -4 -35 25 0 30 16 41 37 23 14 -11 15 -11 11 2 -5 16 -25 22 -45
13z"/>
<path d="M2510 547 c0 -33 23 -67 37 -53 3 3 1 6 -5 6 -7 0 -12 15 -12 34 0
19 -4 38 -10 41 -6 4 -10 -8 -10 -28z"/>
<path d="M2568 539 c-2 -22 0 -43 4 -45 4 -3 8 15 8 40 0 57 -7 60 -12 5z"/>
<path d="M2601 540 l1 -45 8 35 c5 20 5 39 -1 45 -5 5 -9 -8 -8 -35z"/>
<path d="M2643 569 c10 -6 17 -23 18 -42 1 -18 3 -24 6 -14 8 30 -6 67 -25 67
-16 -1 -16 -1 1 -11z"/>
<path d="M2702 568 c-23 -23 -8 -78 22 -78 5 0 2 6 -8 13 -24 18 -18 62 9 62
16 0 20 -7 21 -35 1 -48 -6 -62 -27 -57 -11 3 -19 1 -19 -4 0 -13 34 -11 48 3
7 7 12 33 12 58 0 41 -3 46 -23 48 -13 1 -29 -4 -35 -10z"/>
<path d="M2810 516 c0 -70 11 -70 13 1 2 41 5 48 22 48 27 0 33 -44 9 -62 -10
-7 -13 -13 -8 -13 17 0 34 23 34 46 0 27 -19 44 -48 41 -20 -1 -22 -7 -22 -61z"/>
<path d="M2910 566 c-27 -33 13 -97 42 -68 11 11 10 12 -3 7 -9 -3 -22 1 -29
10 -11 13 -8 15 19 15 32 0 41 16 19 38 -16 16 -33 15 -48 -2z m40 -11 c0 -8
-9 -15 -20 -15 -20 0 -26 11 -13 23 12 13 33 7 33 -8z"/>
<path d="M2992 530 c1 -40 2 -41 5 -10 2 19 11 40 20 47 13 10 13 12 -6 10
-18 -1 -21 -7 -19 -47z"/>
<path d="M3052 568 c-14 -14 2 -38 24 -38 8 0 14 -7 14 -15 0 -18 -21 -20 -38
-3 -9 9 -12 9 -12 1 0 -14 36 -27 50 -18 18 11 10 35 -16 45 -28 11 -23 35 7
27 11 -3 17 -1 13 4 -7 13 -28 11 -42 -3z"/>
<path d="M3130 560 c-20 -38 8 -78 45 -64 36 14 23 84 -15 84 -11 0 -24 -9
-30 -20z m49 -9 c7 -13 6 -24 -3 -37 -12 -15 -16 -16 -30 -5 -19 16 -20 33 -4
49 17 17 26 15 37 -7z"/>
<path d="M3221 531 l2 -46 6 40 c4 26 11 40 21 40 10 0 17 -14 21 -40 l7 -40
-2 45 c-1 42 -3 45 -28 46 -27 1 -28 -1 -27 -45z"/>
<path d="M3316 572 c-3 -5 4 -8 16 -8 15 1 22 -6 23 -24 2 -24 -9 -40 -29 -40
-4 0 -6 9 -3 20 3 11 1 20 -5 20 -5 0 -8 -10 -6 -22 2 -18 10 -23 31 -23 27
-1 28 1 25 40 -2 32 -7 41 -25 43 -11 2 -24 -1 -27 -6z"/>
<path d="M3442 568 c-17 -17 -15 -53 3 -68 12 -10 21 -10 38 -1 21 10 21 11 1
6 -12 -3 -26 1 -34 10 -11 13 -8 15 19 15 19 0 31 5 31 13 0 16 -20 37 -35 37
-6 0 -16 -5 -23 -12z m46 -15 c2 -8 -6 -13 -22 -13 -19 0 -24 4 -19 15 6 18
34 16 41 -2z"/>
<path d="M3522 530 c1 -40 2 -41 5 -10 2 19 11 40 20 47 13 10 13 12 -6 10
-18 -1 -21 -7 -19 -47z"/>
<path d="M3601 549 c-1 -42 16 -61 47 -52 19 4 22 12 20 47 -1 35 -2 37 -5 9
-4 -32 -28 -61 -40 -50 -3 4 -9 24 -13 44 l-8 38 -1 -36z"/>
<path d="M3690 535 c0 -27 2 -46 4 -44 8 8 10 78 3 85 -4 4 -7 -14 -7 -41z"/>
<path d="M3728 573 c6 -2 12 -20 12 -39 0 -19 5 -34 10 -34 6 0 10 13 10 28 0
29 -16 53 -34 51 -6 0 -5 -3 2 -6z"/>
<path d="M3903 540 c0 -25 2 -35 4 -22 2 12 2 32 0 45 -2 12 -4 2 -4 -23z"/>
<path d="M3941 531 l2 -46 6 40 c8 53 38 62 44 13 l4 -33 -1 35 c-1 31 -4 35
-28 36 -27 1 -28 -1 -27 -45z"/>
<path d="M4090 566 c-25 -31 13 -97 40 -70 8 8 4 10 -11 10 -12 -1 -24 5 -26
12 -3 8 6 12 26 12 32 0 41 16 19 38 -16 16 -33 15 -48 -2z m40 -11 c0 -8 -9
-15 -20 -15 -20 0 -26 11 -13 23 12 13 33 7 33 -8z"/>
<path d="M4172 530 c1 -40 2 -41 5 -10 2 19 11 40 20 47 13 10 13 12 -6 10
-18 -1 -21 -7 -19 -47z"/>
<path d="M4220 516 c0 -70 11 -70 13 1 2 41 5 48 22 48 26 0 32 -37 10 -59 -9
-9 -13 -16 -8 -16 16 0 33 24 33 46 0 27 -19 44 -48 41 -20 -1 -22 -7 -22 -61z"/>
<path d="M4320 566 c-27 -33 14 -98 42 -67 8 8 8 11 1 7 -14 -7 -43 3 -43 15
0 5 14 9 30 9 31 0 39 17 18 38 -16 16 -33 15 -48 -2z m40 -11 c0 -8 -9 -15
-20 -15 -20 0 -26 11 -13 23 12 13 33 7 33 -8z"/>
<path d="M4402 530 c1 -40 2 -41 5 -10 2 19 11 40 20 47 13 10 13 12 -6 10
-18 -1 -21 -7 -19 -47z"/>
<path d="M4463 573 c-22 -8 -14 -32 12 -39 14 -3 25 -10 25 -14 0 -16 -21 -22
-35 -10 -9 7 -15 8 -15 2 0 -13 26 -23 45 -16 23 9 18 33 -11 44 -29 12 -22
34 8 24 14 -4 18 -2 14 5 -7 11 -22 13 -43 4z"/>
<path d="M4540 565 c-15 -18 -6 -61 15 -69 37 -14 65 26 45 64 -13 24 -42 26
-60 5z m45 -31 c0 -32 -21 -39 -38 -12 -8 12 -7 21 3 32 19 24 35 14 35 -20z"/>
<path d="M4631 531 l2 -46 6 40 c4 26 11 40 21 40 10 0 17 -14 21 -40 l7 -40
-2 45 c-1 42 -3 45 -28 46 -27 1 -28 -1 -27 -45z"/>
<path d="M4726 572 c-3 -5 4 -8 16 -8 15 1 22 -6 23 -24 2 -24 -9 -40 -29 -40
-4 0 -6 9 -3 20 6 23 -8 27 -16 5 -7 -17 9 -30 41 -30 19 -1 22 4 22 36 0 24
-5 39 -16 43 -21 8 -32 8 -38 -2z"/>
<path d="M4850 566 c-27 -33 13 -97 42 -68 11 11 10 12 -3 7 -9 -3 -22 1 -29
10 -11 13 -8 15 19 15 32 0 41 16 19 38 -16 16 -33 15 -48 -2z m41 -11 c0 -5
-9 -11 -21 -13 -20 -3 -27 8 -13 22 10 9 34 3 34 -9z"/>
<path d="M4932 530 c1 -40 2 -41 5 -10 2 19 11 40 20 47 13 10 13 12 -6 10
-18 -1 -21 -7 -19 -47z"/>
<path d="M5120 566 c-15 -19 -9 -56 12 -69 34 -22 66 41 36 71 -16 16 -33 15
-48 -2z m45 -31 c0 -23 -4 -30 -20 -30 -21 0 -31 25 -21 51 11 28 41 12 41
-21z"/>
<path d="M5201 540 l1 -45 8 35 c5 20 5 39 -1 45 -5 5 -9 -8 -8 -35z"/>
<path d="M5243 569 c11 -6 18 -23 18 -47 l2 -37 6 40 c4 26 11 40 21 40 10 0
17 -14 21 -40 l7 -40 -2 45 -1 45 -45 2 c-33 1 -40 -1 -27 -8z"/>
<path d="M5351 516 c1 -34 4 -52 7 -41 4 11 13 20 20 21 6 1 17 2 23 3 6 0 9
17 7 39 -3 33 -6 37 -30 38 -28 1 -28 0 -27 -60z m44 18 c0 -19 -5 -29 -15
-29 -16 0 -25 28 -16 51 10 25 31 10 31 -22z"/>
<path d="M5440 560 c-22 -40 13 -82 48 -60 14 9 14 10 -4 5 -13 -3 -26 1 -34
10 -11 13 -8 15 19 15 24 0 31 4 31 19 0 17 -18 31 -40 31 -5 0 -14 -9 -20
-20z m48 -8 c2 -7 -6 -12 -17 -12 -21 0 -27 11 -14 24 9 9 26 2 31 -12z"/>
<path d="M5582 568 c-33 -33 7 -92 46 -68 15 10 14 10 -4 5 -13 -3 -26 1 -34
10 -11 13 -8 15 19 15 19 0 31 5 31 13 0 16 -20 37 -35 37 -6 0 -16 -5 -23
-12z m46 -15 c2 -8 -5 -13 -17 -13 -12 0 -21 6 -21 16 0 18 31 15 38 -3z"/>
<path d="M5661 531 l2 -46 6 40 c4 26 12 41 23 43 13 3 18 -6 21 -40 l4 -43
-1 45 c-1 42 -3 45 -28 46 -27 1 -28 -1 -27 -45z"/>
<path d="M5768 571 l24 -6 -21 -27 c-29 -37 -26 -48 12 -47 32 1 32 1 4 8
l-28 6 26 34 c14 19 25 36 25 38 0 2 -15 3 -32 2 -29 -1 -30 -2 -10 -8z"/>
<path d="M5830 560 c-21 -40 12 -82 48 -60 14 8 13 9 -7 7 -13 -1 -26 4 -28
11 -3 7 5 12 22 12 22 0 26 4 23 23 -4 30 -43 35 -58 7z m48 -8 c2 -7 -6 -12
-17 -12 -21 0 -27 11 -14 24 9 9 26 2 31 -12z"/>
<path d="M5911 540 l1 -45 8 35 c5 20 5 39 -1 45 -5 5 -9 -8 -8 -35z"/>
<path d="M5954 564 c9 -8 17 -27 17 -42 1 -19 3 -21 6 -9 7 29 -6 67 -23 67
-14 0 -14 -2 0 -16z"/>
<path d="M100 560 c0 -5 6 -7 14 -4 8 3 16 -2 19 -13 4 -14 5 -14 6 5 1 16 -5
22 -19 22 -11 0 -20 -4 -20 -10z"/>
<path d="M886 557 c3 -10 9 -15 12 -12 3 3 0 11 -7 18 -10 9 -11 8 -5 -6z"/>
<path d="M31 544 c-1 -35 29 -126 67 -199 49 -93 154 -198 248 -248 40 -20 76
-37 80 -37 5 0 -23 17 -62 38 -164 87 -267 217 -314 396 -10 39 -19 62 -19 50z"/>
<path d="M70 545 c0 -21 28 -31 43 -15 10 10 7 11 -12 5 -20 -6 -23 -4 -18 9
4 9 2 16 -3 16 -6 0 -10 -7 -10 -15z"/>
<path d="M1146 523 c-12 -12 -6 -22 10 -16 9 3 20 0 24 -7 5 -9 13 -9 25 -3
10 6 14 12 9 15 -18 10 -61 17 -68 11z"/>
<path d="M108 503 c-10 -2 -18 -8 -18 -13 0 -5 14 -4 30 1 45 16 36 25 -12 12z"/>
<path d="M1135 481 c-2 -5 7 -12 21 -15 35 -9 40 -2 9 12 -13 6 -27 7 -30 3z"/>
<path d="M145 470 c-4 -6 -15 -8 -25 -5 -11 3 -20 0 -24 -10 -3 -8 -1 -15 4
-15 16 0 60 23 60 32 0 11 -7 10 -15 -2z"/>
<path d="M160 443 c0 -7 -7 -13 -15 -13 -8 0 -19 -9 -25 -20 -6 -11 -7 -20 -1
-20 5 0 11 7 15 15 6 17 36 21 36 5 0 -5 -5 -10 -12 -10 -6 0 -9 -2 -6 -5 7
-7 38 5 38 14 0 13 -29 46 -30 34z"/>
<path d="M1113 434 c-3 -8 0 -21 7 -27 10 -9 14 -9 17 1 3 6 9 12 15 12 6 0 7
-7 4 -16 -3 -8 -2 -12 4 -9 15 9 12 32 -5 39 -8 3 -19 -3 -25 -12 -9 -14 -10
-14 -5 6 7 25 -2 30 -12 6z"/>
<path d="M182 374 c-7 -8 -17 -12 -22 -9 -4 3 -10 -2 -14 -10 -3 -8 0 -15 7
-15 18 1 61 36 51 43 -5 2 -15 -1 -22 -9z"/>
<path d="M1125 350 c3 -5 8 -10 11 -10 2 0 4 5 4 10 0 6 -5 10 -11 10 -5 0 -7
-4 -4 -10z"/>
<path d="M189 330 c-31 -25 -12 -26 21 0 14 11 20 20 14 20 -7 0 -22 -9 -35
-20z"/>
<path d="M1155 304 c-9 -15 -12 -23 -6 -20 11 7 35 46 28 46 -3 0 -12 -12 -22
-26z"/>
<path d="M202 308 c-20 -20 -13 -32 8 -13 11 10 23 15 28 11 4 -4 -2 -14 -12
-22 -11 -7 -18 -16 -15 -18 8 -8 50 34 44 44 -8 14 -38 13 -53 -2z"/>
<path d="M1030 305 c0 -9 36 -40 51 -43 8 -2 2 8 -13 22 -26 25 -38 32 -38 21z"/>
<path d="M245 260 c-27 -30 -12 -34 15 -5 13 14 19 25 13 25 -5 0 -18 -9 -28
-20z"/>
<path d="M995 270 c-3 -5 0 -10 8 -10 8 0 20 -7 27 -15 7 -9 15 -13 18 -10 6
6 -28 45 -39 45 -4 0 -11 -4 -14 -10z"/>
<path d="M1109 243 l-24 -28 28 24 c15 14 27 26 27 28 0 8 -8 1 -31 -24z"/>
<path d="M296 252 c8 -12 -18 -41 -31 -36 -8 4 -15 1 -15 -5 0 -18 25 -13 45
9 12 13 15 23 8 29 -5 5 -8 6 -7 3z"/>
<path d="M995 230 c10 -11 23 -20 28 -20 6 0 2 9 -8 20 -10 11 -23 20 -28 20
-6 0 -2 -9 8 -20z"/>
<path d="M947 223 c-19 -19 10 -63 41 -63 11 1 8 6 -10 16 -16 8 -28 22 -28
31 0 14 2 14 20 -2 21 -19 28 -7 8 13 -14 14 -22 15 -31 5z"/>
<path d="M910 192 c0 -12 39 -60 40 -49 0 5 -9 20 -20 34 -11 14 -20 21 -20
15z"/>
<path d="M393 158 c-1 -17 -1 -29 0 -27 2 2 8 11 15 20 10 13 10 19 0 27 -10
8 -14 3 -15 -20z"/>
<path d="M1015 154 c-30 -27 -32 -31 -9 -16 28 19 62 53 53 52 -2 -1 -22 -17
-44 -36z"/>
<path d="M877 174 c-3 -5 3 -21 14 -34 21 -29 25 -17 5 19 -7 13 -16 20 -19
15z"/>
<path d="M437 153 c4 -9 -1 -21 -12 -29 -10 -8 -15 -17 -11 -21 8 -8 46 32 46
47 0 4 -7 10 -14 13 -11 4 -13 1 -9 -10z"/>
<path d="M372 140 c0 -14 2 -19 5 -12 2 6 2 18 0 25 -3 6 -5 1 -5 -13z"/>
<path d="M469 112 c-6 -18 -15 -29 -20 -26 -5 3 -9 0 -9 -5 0 -6 6 -11 13 -11
13 0 41 60 32 68 -3 3 -10 -9 -16 -26z"/>
<path d="M920 95 c-25 -13 -41 -24 -37 -25 11 0 87 39 87 45 0 7 0 7 -50 -20z"/>
<path d="M500 80 c0 -5 5 -10 10 -10 6 0 10 5 10 10 0 6 -4 10 -10 10 -5 0
-10 -4 -10 -10z"/>
<path d="M478 43 c7 -3 16 -2 19 1 4 3 -2 6 -13 5 -11 0 -14 -3 -6 -6z"/>
<path d="M798 43 c7 -3 16 -2 19 1 4 3 -2 6 -13 5 -11 0 -14 -3 -6 -6z"/>
<path d="M518 33 c7 -3 16 -2 19 1 4 3 -2 6 -13 5 -11 0 -14 -3 -6 -6z"/>
<path d="M748 33 c6 -2 18 -2 25 0 6 3 1 5 -13 5 -14 0 -19 -2 -12 -5z"/>
<path d="M578 23 c7 -3 16 -2 19 1 4 3 -2 6 -13 5 -11 0 -14 -3 -6 -6z"/>
</g>
</svg>
